<?xml version="1.0" standalone="no"?>
<!DOCTYPE svg PUBLIC "-//W3C//DTD SVG 20010904//EN"
 "http://www.w3.org/TR/2001/REC-SVG-20010904/DTD/svg10.dtd">
<svg version="1.0" xmlns="http://www.w3.org/2000/svg"
 width="1000.000000pt" height="1000.000000pt" viewBox="0 0 1000.000000 1000.000000"
 preserveAspectRatio="xMidYMid meet">
<metadata>
Created by potrace 1.11, written by Peter Selinger 2001-2013
</metadata>
<g transform="translate(0.000000,1000.000000) scale(0.100000,-0.100000)"
fill="#000000" stroke="none">
<path d="M1016 8723 c-1 -1 -136 -6 -378 -12 l-28 -1 0 -139 0 -139 223 0
c241 0 269 -2 329 -33 127 -65 211 -266 223 -531 2 -57 5 -456 6 -888 2 -750
4 -839 34 -1095 3 -33 8 -67 11 -76 3 -9 7 -32 9 -50 6 -41 14 -85 31 -159 3
-14 10 -43 14 -65 23 -105 108 -372 150 -470 131 -303 275 -525 470 -724 158
-161 500 -332 915 -456 66 -19 134 -40 152 -46 18 -5 40 -12 50 -14 10 -2 77
-18 148 -35 72 -17 137 -33 145 -35 66 -14 272 -55 300 -60 19 -3 85 -14 145
-24 163 -28 245 -41 295 -47 25 -3 70 -8 100 -12 l55 -7 0 -680 c0 -374 -3
-705 -8 -735 -21 -152 -71 -295 -142 -406 -40 -62 -143 -167 -187 -190 -35
-18 -182 -60 -238 -68 -25 -3 -56 -8 -70 -11 -21 -4 -119 -13 -215 -20 -16 -1
-88 -3 -158 -4 l-128 -1 3 -107 3 -107 1710 -1 c941 0 1718 1 1728 3 15 4 17
17 17 107 l0 103 -97 1 c-148 2 -360 15 -403 26 -8 2 -35 7 -60 10 -66 9 -183
42 -235 66 -39 18 -138 106 -170 150 -75 103 -123 214 -156 355 -23 97 -23
110 -27 807 -2 389 0 706 5 705 11 -3 274 31 361 47 93 17 142 25 172 30 241
38 678 142 910 217 486 157 771 319 951 538 18 23 42 52 53 63 124 144 266
405 366 672 49 132 132 432 145 527 3 24 8 50 10 58 2 8 7 35 10 60 3 25 8 56
10 70 5 29 14 113 25 225 4 44 8 440 9 880 2 781 4 893 16 985 17 125 29 169
71 258 52 108 125 170 219 188 22 4 137 8 255 8 l215 1 3 138 3 137 -28 1
c-15 0 -75 2 -133 4 -397 15 -623 7 -820 -31 -306 -58 -511 -171 -632 -348
-83 -120 -181 -376 -212 -549 -3 -15 -7 -35 -10 -45 -18 -56 -68 -383 -81
-527 -31 -346 -34 -395 -40 -790 -7 -424 -15 -787 -20 -855 -16 -218 -23 -296
-35 -370 -5 -30 -12 -75 -15 -100 -4 -24 -8 -47 -10 -51 -2 -3 -7 -21 -10 -40
-24 -140 -89 -301 -172 -427 -104 -158 -282 -312 -463 -402 -36 -17 -77 -38
-92 -46 -16 -9 -28 -12 -28 -8 0 3 -6 2 -12 -3 -36 -29 -313 -113 -483 -147
-129 -26 -140 -28 -240 -41 -27 -4 -61 -9 -75 -11 -14 -2 -64 -6 -113 -9 l-87
-6 1 1943 c0 1149 4 1970 10 2008 24 170 72 279 160 369 125 128 360 186 769
190 l105 1 0 144 c0 79 -4 148 -8 152 -8 9 -3224 12 -3236 4 -3 -3 -6 -71 -6
-152 l0 -148 95 -1 c133 0 344 -15 360 -24 3 -1 26 -6 52 -9 26 -4 53 -9 60
-11 7 -2 24 -6 38 -9 94 -16 209 -73 266 -132 66 -67 130 -189 148 -279 3 -16
9 -43 13 -60 4 -16 9 -920 10 -2009 l4 -1979 -84 7 c-46 4 -93 8 -103 10 -10
2 -46 7 -79 10 -90 10 -180 26 -275 48 -47 11 -96 22 -110 24 -99 19 -310 93
-439 155 -246 117 -439 291 -553 499 -57 104 -127 322 -144 450 -3 25 -8 52
-9 62 -3 15 -9 60 -20 143 -4 27 -9 101 -20 260 -5 63 -14 437 -21 845 -6 368
-13 526 -29 685 -2 22 -7 72 -11 110 -3 39 -8 84 -9 100 -3 33 -15 119 -21
150 -2 11 -7 40 -10 64 -3 24 -14 87 -25 140 -80 393 -182 635 -326 772 -159
154 -423 245 -793 275 -78 6 -319 12 -324 7z"/>
</g>
</svg>
